<svg width="56" height="56" viewBox="0 0 56 56" fill="none" xmlns="http://www.w3.org/2000/svg">
<path d="M12 4H4V12" stroke="#E62636" stroke-width="1.5" stroke-linecap="round" stroke-linejoin="round"/>
<path d="M44 4H52V12" stroke="#E62636" stroke-width="1.5" stroke-linecap="round" stroke-linejoin="round"/>
<path d="M12 52H4V44" stroke="#E62636" stroke-width="1.5" stroke-linecap="round" stroke-linejoin="round"/>
<path d="M14.667 44V41.3333C14.667 33.9696 20.6365 28 28.0003 28C35.3641 28 41.3337 33.9696 41.3337 41.3333V44" stroke="white" stroke-width="1.5" stroke-linecap="round" stroke-linejoin="round"/>
<path d="M28 28C32.4184 28 36 24.4184 36 20C36 15.5817 32.4184 12 28 12C23.5816 12 20 15.5817 20 20C20 24.4184 23.5816 28 28 28Z" stroke="white" stroke-width="1.5" stroke-linecap="round" stroke-linejoin="round"/>
<path d="M44 52H52V44" stroke="#E62636" stroke-width="1.5" stroke-linecap="round" stroke-linejoin="round"/>
</svg>
