<svg width="80" height="80" viewBox="0 0 80 80" fill="none" xmlns="http://www.w3.org/2000/svg">
<path d="M23.4287 31.333C20.9282 28.8325 19.5234 25.4411 19.5234 21.9049C19.5234 18.3686 20.9282 14.9773 23.4287 12.4768C25.9292 9.97629 29.3206 8.57153 32.8568 8.57153C36.393 8.57153 39.7844 9.97629 42.2849 12.4768C44.7853 14.9773 46.1901 18.3686 46.1901 21.9049C46.1901 25.4411 44.7853 28.8325 42.2849 31.333C39.7844 33.8334 36.393 35.2382 32.8568 35.2382C29.3206 35.2382 25.9292 33.8334 23.4287 31.333Z" stroke="#E62636" stroke-width="1.5" stroke-linecap="round" stroke-linejoin="round"/>
<path d="M12.8574 68.5715V61.9049C12.8574 58.3686 14.2622 54.9773 16.7627 52.4768C19.2631 49.9763 22.6545 48.5715 26.1908 48.5715H27.8574" stroke="#E62636" stroke-width="1.5" stroke-linecap="round" stroke-linejoin="round"/>
<path d="M52.1906 67.9614L44.9506 71.7548C44.7357 71.8666 44.494 71.9165 44.2524 71.8989C44.0109 71.8813 43.7789 71.797 43.5825 71.6552C43.3861 71.5134 43.233 71.3199 43.1403 71.0961C43.0475 70.8724 43.0188 70.6273 43.0572 70.3881L44.4406 62.3515L38.5839 56.6614C38.4091 56.4925 38.2853 56.2777 38.2267 56.0417C38.1681 55.8058 38.177 55.5581 38.2524 55.3269C38.3279 55.0958 38.4668 54.8905 38.6533 54.7345C38.8398 54.5785 39.0664 54.4781 39.3072 54.4448L47.4006 53.2714L51.0206 45.9615C51.1288 45.7437 51.2957 45.5605 51.5024 45.4325C51.7091 45.3044 51.9474 45.2366 52.1906 45.2366C52.4337 45.2366 52.6721 45.3044 52.8787 45.4325C53.0854 45.5605 53.2523 45.7437 53.3606 45.9615L56.9806 53.2714L65.0739 54.4448C65.314 54.4793 65.5397 54.5804 65.7254 54.7365C65.9111 54.8926 66.0494 55.0976 66.1247 55.3283C66.1999 55.5589 66.2091 55.806 66.1513 56.0416C66.0934 56.2772 65.9708 56.4919 65.7972 56.6614L59.9406 62.3515L61.3206 70.3848C61.362 70.6243 61.3354 70.8707 61.2438 71.0959C61.1523 71.3211 60.9994 71.5161 60.8025 71.6588C60.6057 71.8015 60.3728 71.8861 60.1303 71.9031C59.8878 71.92 59.6454 71.8687 59.4306 71.7548L52.1906 67.9614Z" stroke="white" stroke-width="1.5" stroke-linecap="round" stroke-linejoin="round"/>
</svg>
