<svg width="80" height="80" viewBox="0 0 80 80" fill="none" xmlns="http://www.w3.org/2000/svg">
<path d="M42.1073 35.0165C41.7407 34.7272 41.2016 34.7764 40.9019 35.1413C40.6023 35.4996 40.6592 36.0322 41.0258 36.3248L57.0169 49.0764C58.1134 49.9508 58.2825 51.5386 57.3952 52.6168L56.369 53.8595C55.4834 54.9344 53.8579 55.102 52.7647 54.2441L51.5208 53.2217L47.6134 57.9456C47.0827 58.5801 46.3311 58.9778 45.4973 59.0633C44.6704 59.1389 43.85 58.9121 43.2255 58.4092L41.3104 56.7786L40.6223 56.3545L40.0582 56.9101C39.047 58.1297 37.6157 58.8891 36.0236 59.0501C34.4282 59.2178 32.8678 58.7543 31.6541 57.7878L21.7133 48.9613H6.57101C6.09722 48.9613 5.71387 49.3394 5.71387 49.8029C5.71387 50.2663 6.09722 50.6444 6.57101 50.6444H21.0537L30.5392 59.0666C31.9287 60.1744 33.6279 60.7662 35.3924 60.7662C35.6603 60.7662 35.9299 60.753 36.201 60.7267C37.9755 60.5459 39.5961 59.7865 40.8216 58.5866L42.1223 59.6944C43.1201 60.4965 44.3808 60.8549 45.6748 60.7366C46.9605 60.6051 48.1207 59.9936 48.941 59.0074L51.7568 55.605C53.6017 56.9857 56.2451 56.6866 57.7016 54.918L58.7278 53.6754C60.2077 51.8772 59.9248 49.2275 58.0984 47.768L42.1073 35.0165ZM6.57101 27.1006H19.4282L19.7998 27.084L20.0509 26.8376C24.3082 22.6692 29.9666 20.3713 35.9868 20.3713C36.4605 20.3713 36.8439 19.9933 36.8439 19.5298C36.8439 19.0663 36.4605 18.6882 35.9868 18.6882C29.6285 18.6882 23.6452 21.0683 19.0766 25.4174H6.57101C6.09722 25.4174 5.71387 25.7954 5.71387 26.259C5.71387 26.7226 6.09722 27.1006 6.57101 27.1006ZM74.2853 26.259C74.2853 25.7954 73.9019 25.4174 73.4282 25.4174H60.9226C56.369 21.0749 50.379 18.6882 44.0157 18.6882H43.0933C42.0336 18.6882 41.0074 19.0762 40.1972 19.7895L29.6436 29.28L29.5448 29.3885C27.5509 31.3149 27.4639 34.359 29.3639 36.3708C30.1809 37.2486 31.6541 38.0014 33.2562 38.0014C34.326 38.0014 35.4527 37.666 36.4806 36.8048L45.1977 28.9973C45.5475 28.685 45.5727 28.1525 45.2529 27.8074C44.9348 27.4687 44.3942 27.4392 44.0425 27.7548L35.5799 35.3452L35.1514 35.5161V35.6936C33.3282 37.0085 31.3043 35.96 30.6246 35.2301C29.3422 33.8725 29.4243 31.808 30.8104 30.5292L41.3489 21.0387C41.8361 20.608 42.4571 20.3713 43.0933 20.3713H44.0157C50.0409 20.3713 55.7061 22.6725 59.965 26.854L60.216 27.1006H73.4282C73.9019 27.1006 74.2853 26.7225 74.2853 26.259ZM73.4282 48.9481H62.1112C61.6374 48.9481 61.254 49.3262 61.254 49.7897C61.254 50.2532 61.6374 50.6313 62.1112 50.6313H73.4282C73.9019 50.6313 74.2853 50.2532 74.2853 49.7897C74.2853 49.3262 73.9019 48.9481 73.4282 48.9481Z" fill="white"/>
<path d="M42.1073 35.0165C41.7407 34.7272 41.2016 34.7764 40.9019 35.1413C40.6023 35.4996 40.6592 36.0322 41.0258 36.3248L57.0169 49.0764C58.1134 49.9508 58.2825 51.5386 57.3952 52.6168L56.369 53.8595C55.4834 54.9344 53.8579 55.102 52.7647 54.2441L51.5208 53.2217L47.6134 57.9456C47.0827 58.5801 46.3311 58.9778 45.4973 59.0633C44.6704 59.1389 43.85 58.9121 43.2255 58.4092L41.3104 56.7786L40.6223 56.3545L40.0582 56.9101C39.047 58.1297 37.6157 58.8891 36.0236 59.0501C34.4282 59.2178 32.8678 58.7543 31.6541 57.7878L21.7133 48.9613H6.57101C6.09722 48.9613 5.71387 49.3394 5.71387 49.8029C5.71387 50.2663 6.09722 50.6444 6.57101 50.6444H21.0537L30.5392 59.0666C31.9287 60.1744 33.6279 60.7662 35.3924 60.7662C35.6603 60.7662 35.9299 60.753 36.201 60.7267C37.9755 60.5459 39.5961 59.7865 40.8216 58.5866L42.1223 59.6944C43.1201 60.4965 44.3808 60.8549 45.6748 60.7366C46.9605 60.6051 48.1207 59.9936 48.941 59.0074L51.7568 55.605C53.6017 56.9857 56.2451 56.6866 57.7016 54.918L58.7278 53.6754C60.2077 51.8772 59.9248 49.2275 58.0984 47.768L42.1073 35.0165ZM6.57101 27.1006H19.4282L19.7998 27.084L20.0509 26.8376C24.3082 22.6692 29.9666 20.3713 35.9868 20.3713C36.4605 20.3713 36.8439 19.9933 36.8439 19.5298C36.8439 19.0663 36.4605 18.6882 35.9868 18.6882C29.6285 18.6882 23.6452 21.0683 19.0766 25.4174H6.57101C6.09722 25.4174 5.71387 25.7954 5.71387 26.259C5.71387 26.7226 6.09722 27.1006 6.57101 27.1006Z" fill="#E62636"/>
</svg>
