<svg width="56" height="56" viewBox="0 0 56 56" fill="none" xmlns="http://www.w3.org/2000/svg">
<path d="M29 23.5C26.518 23.5 24.4985 25.5187 24.4985 28C24.4985 30.4813 26.518 32.5 29 32.5C31.482 32.5 33.5014 30.4813 33.5014 28C33.5014 25.5187 31.482 23.5 29 23.5ZM29 31C27.3425 31 25.999 29.6569 25.999 28C25.999 26.3431 27.3425 25 29 25C30.6575 25 32.0009 26.3431 32.0009 28C32.0009 29.6569 30.6575 31 29 31ZM47.785 9.22103C46.2772 7.71391 44.1424 7 41.6171 7C37.9844 7.00019 33.541 8.51209 29.0004 11.2322C24.4595 8.51172 20.0159 6.99963 16.3828 7C13.8583 7.00019 11.7224 7.71428 10.215 9.22103C6.53814 12.8969 7.59901 20.305 12.2124 28C7.59901 35.695 6.53814 43.1031 10.215 46.7788C11.7228 48.2861 13.8576 49 16.3828 49C20.0155 49 24.4589 47.4877 28.9998 44.7677C33.5407 47.4879 37.9842 49 41.6171 49C44.1416 49 46.2775 48.2857 47.785 46.7788C51.4618 43.1031 50.401 35.695 45.7876 28C50.401 20.305 51.4618 12.8969 47.785 9.22103ZM41.6176 8.5C43.8232 8.5 45.5412 9.09953 46.7239 10.2818C49.7703 13.3272 48.7922 19.7477 44.8921 26.5507C43.132 23.8646 40.952 21.1693 38.3925 18.6106C35.8326 16.0515 33.1364 13.8956 30.449 12.1359C34.4487 9.84362 38.3751 8.50019 41.6176 8.5ZM11.2761 10.2818C12.4585 9.09962 14.1772 8.50019 16.3841 8.5C19.6262 8.5 23.5521 9.84362 27.5515 12.1359C24.8639 13.8956 22.1674 16.0515 19.6075 18.6106C17.0479 21.1693 14.8679 23.8646 13.1079 26.5507C9.20776 19.7477 8.22967 13.3272 11.2761 10.2818ZM16.3828 47.5C14.1768 47.5 12.4587 46.9005 11.2761 45.7182C8.22967 42.6728 9.20776 36.2523 13.1079 29.4493C14.8679 32.1354 17.0479 34.8307 19.6075 37.3894C22.1676 39.9485 24.8637 42.1044 27.5512 43.8641C23.5514 46.1564 19.6253 47.5 16.3828 47.5ZM20.6685 36.3288C18.0008 33.6618 15.7603 30.8167 13.9859 28C15.7603 25.1833 18.0008 22.3382 20.6685 19.6713C23.3024 17.0382 26.1516 14.7809 29.0002 12.9866C31.8484 14.7807 34.6975 17.0382 37.3315 19.6713C39.9992 22.3382 42.2396 25.1833 44.014 28C42.2396 30.8167 39.9992 33.6618 37.3315 36.3288C34.6975 38.9618 31.8484 41.2193 29 43.0134C26.1516 41.2193 23.3024 38.9618 20.6685 36.3288ZM46.7239 45.7182C45.5412 46.9005 43.8232 47.5 41.6171 47.5C38.3747 47.5 34.4484 46.1566 30.4486 43.8641C33.1362 42.1044 35.8326 39.9485 38.3925 37.3894C40.952 34.8307 43.132 32.1354 44.8921 29.4493C48.7922 36.2523 49.7703 42.6728 46.7239 45.7182Z" fill="#E62636"/>
<path d="M28.9995 23.5C26.5175 23.5 24.498 25.5187 24.498 28C24.498 30.4813 26.5175 32.5 28.9995 32.5C31.4816 32.5 33.501 30.4813 33.501 28C33.501 25.5187 31.4816 23.5 28.9995 23.5ZM28.9995 31C27.342 31 25.9986 29.6569 25.9986 28C25.9986 26.3431 27.342 25 28.9995 25C30.657 25 32.0005 26.3431 32.0005 28C32.0005 29.6569 30.657 31 28.9995 31Z" fill="white"/>
</svg>
