<svg width="80" height="80" viewBox="0 0 80 80" fill="none" xmlns="http://www.w3.org/2000/svg">
<path d="M10 40H13.3333M40 10V13.3333M66.6667 40H70M18.6667 18.6667L21 21M61.3333 18.6667L59 21" stroke="white" stroke-width="1.5" stroke-linecap="round" stroke-linejoin="round"/>
<path d="M24.0911 44.9694C25.1341 48.3083 27.2012 51.2344 29.9997 53.3333C31.3011 54.6215 32.281 56.1981 32.8601 57.9353C33.4392 59.6726 33.6012 61.5218 33.333 63.3333C33.333 65.1014 34.0354 66.7971 35.2856 68.0473C36.5359 69.2975 38.2316 69.9999 39.9997 69.9999C41.7678 69.9999 43.4635 69.2975 44.7137 68.0473C45.964 66.7971 46.6663 65.1014 46.6663 63.3333C46.3982 61.5218 46.5602 59.6726 47.1392 57.9353C47.7183 56.1981 48.6982 54.6215 49.9997 53.3333C52.7981 51.2344 54.8652 48.3083 55.9082 44.9694C56.9512 41.6305 56.9172 38.048 55.8111 34.7295C54.7049 31.4109 52.5826 28.5246 49.7448 26.4792C46.9071 24.4339 43.4977 23.3333 39.9997 23.3333C36.5016 23.3333 33.0923 24.4339 30.2545 26.4792C27.4167 28.5246 25.2945 31.4109 24.1883 34.7295C23.0821 38.048 23.0481 41.6305 24.0911 44.9694Z" stroke="#E62636" stroke-width="1.5" stroke-linecap="round" stroke-linejoin="round"/>
<path d="M32.333 56.6667H47.6663" stroke="#E62636" stroke-width="1.5" stroke-linecap="round" stroke-linejoin="round"/>
</svg>
