<svg width="80" height="80" viewBox="0 0 80 80" fill="none" xmlns="http://www.w3.org/2000/svg">
<path d="M30 40C30 42.6522 31.0536 45.1957 32.9289 47.0711C34.8043 48.9464 37.3478 50 40 50C42.6522 50 45.1957 48.9464 47.0711 47.0711C48.9464 45.1957 50 42.6522 50 40C50 37.3478 48.9464 34.8043 47.0711 32.9289C45.1957 31.0536 42.6522 30 40 30C37.3478 30 34.8043 31.0536 32.9289 32.9289C31.0536 34.8043 30 37.3478 30 40Z" stroke="white" stroke-width="1.5" stroke-linecap="round" stroke-linejoin="round"/>
<path d="M56.6668 56.6666L48.3335 48.3333" stroke="white" stroke-width="1.5" stroke-linecap="round" stroke-linejoin="round"/>
<path d="M33.3335 13.3334L40.0002 6.66675L46.6668 13.3334" stroke="#E62636" stroke-width="1.5" stroke-linecap="round" stroke-linejoin="round"/>
<path d="M66.6665 33.3333L73.3332 39.9999L66.6665 46.6666" stroke="#E62636" stroke-width="1.5" stroke-linecap="round" stroke-linejoin="round"/>
<path d="M13.3332 33.3333L6.6665 39.9999L13.3332 46.6666" stroke="#E62636" stroke-width="1.5" stroke-linecap="round" stroke-linejoin="round"/>
<path d="M33.3335 66.6667L40.0002 73.3334L46.6668 66.6667" stroke="#E62636" stroke-width="1.5" stroke-linecap="round" stroke-linejoin="round"/>
</svg>
