<svg width="39" height="40" viewBox="0 0 39 40" fill="none" xmlns="http://www.w3.org/2000/svg">
<mask id="mask0_1042_153" style="mask-type:alpha" maskUnits="userSpaceOnUse" x="10" y="0" width="19" height="19">
<path d="M19.052 0.817916L11.384 0.827108L13.3974 2.84051C11.3804 4.48837 10.092 6.99519 10.092 9.80304C10.092 9.83386 10.0922 9.86464 10.0925 9.89538L10.1002 17.5235L12.1151 15.5101C13.7629 17.5272 16.2697 18.8155 19.0776 18.8155C21.9996 18.8155 24.5956 17.4207 26.2366 15.2607L22.9364 11.9258C22.1736 13.3365 20.682 14.243 19.0777 14.243C17.6353 14.243 16.1986 13.396 15.4325 12.1936L17.7685 9.85755L14.6649 9.85694C14.6647 9.83902 14.6646 9.82109 14.6646 9.80314C14.6646 8.36073 15.5115 6.92404 16.7139 6.15791L19.05 8.49396L19.0506 5.39078C19.0685 5.39055 19.0865 5.39044 19.1045 5.39044C20.5469 5.39044 21.9836 6.2374 22.7497 7.43979L20.4137 9.77584L28.0894 9.77734L28.0897 9.77786L28.0805 2.10987L26.0671 4.12327C24.4192 2.10623 21.9124 0.817916 19.1046 0.817916C19.0869 0.817916 19.0696 0.817815 19.052 0.817916Z" fill="black"/>
</mask>
<g mask="url(#mask0_1042_153)">
<path d="M28.0897 9.77782C28.0897 9.76432 28.0805 2.10982 28.0805 2.10982L26.0671 4.12323C24.4193 2.10618 21.9125 0.817871 19.1046 0.817871C16.1826 0.817871 13.5866 2.21263 11.9456 4.37262L15.2458 7.70755C16.0086 6.29686 17.5002 5.39039 19.1045 5.39039C20.5469 5.39039 21.9836 6.23736 22.7497 7.43974L20.4137 9.7758L28.0895 9.7773" fill="#1C3AA9"/>
<g filter="url(#filter0_d_1042_153)">
<path d="M19.052 0.817871L11.384 0.827063L13.3974 2.84047C11.3804 4.48832 10.092 6.99514 10.092 9.80299C10.092 12.725 11.4868 15.321 13.6468 16.962L16.9817 13.6618C15.571 12.899 14.6646 11.4074 14.6646 9.8031C14.6646 8.36068 15.5115 6.92399 16.7139 6.15786L19.05 8.49392L19.0515 0.818128" fill="#4285F4"/>
</g>
<g filter="url(#filter1_d_1042_153)">
<path d="M10.0925 9.85547L10.1002 17.5235L12.1151 15.5101C13.7629 17.5271 16.2697 18.8154 19.0776 18.8154C21.9996 18.8154 24.5956 17.4207 26.2366 15.2607L22.9364 11.9257C22.1736 13.3364 20.682 14.2429 19.0777 14.2429C17.6353 14.2429 16.1986 13.3959 15.4325 12.1935L17.7685 9.85749L10.0927 9.85599" fill="#ABABAB"/>
</g>
</g>
<path d="M1.47129 28.1251V31.1768H0.852234V27.5562H1.45456L1.47129 28.1251ZM2.60232 27.5361L2.59897 28.1117C2.54766 28.1005 2.49859 28.0938 2.45174 28.0916C2.40712 28.0872 2.35581 28.0849 2.29781 28.0849C2.15504 28.0849 2.029 28.1072 1.91969 28.1518C1.81038 28.1965 1.7178 28.2589 1.64195 28.3392C1.5661 28.4195 1.50587 28.5155 1.46125 28.627C1.41886 28.7363 1.39098 28.8568 1.37759 28.9884L1.20359 29.0888C1.20359 28.8702 1.22478 28.6649 1.26717 28.4731C1.31178 28.2812 1.37982 28.1117 1.47129 27.9645C1.56275 27.815 1.67876 27.699 1.8193 27.6164C1.96207 27.5317 2.13161 27.4893 2.32793 27.4893C2.37254 27.4893 2.42385 27.4949 2.48185 27.506C2.53986 27.5149 2.58001 27.525 2.60232 27.5361Z" fill="#C5C5C5"/>
<path d="M4.61676 31.2438C4.36467 31.2438 4.13601 31.2014 3.93078 31.1166C3.72777 31.0296 3.55265 30.908 3.40542 30.7519C3.26041 30.5957 3.14887 30.4106 3.07079 30.1964C2.99271 29.9822 2.95368 29.748 2.95368 29.4937V29.3531C2.95368 29.0587 2.99718 28.7966 3.08418 28.5668C3.17118 28.3348 3.28941 28.1385 3.43888 27.9778C3.58835 27.8172 3.75789 27.6956 3.94751 27.6131C4.13713 27.5306 4.33344 27.4893 4.53645 27.4893C4.79522 27.4893 5.01831 27.5339 5.2057 27.6231C5.39532 27.7124 5.55036 27.8373 5.67083 27.9979C5.79129 28.1563 5.88052 28.3437 5.93852 28.5601C5.99653 28.7742 6.02553 29.0085 6.02553 29.2628V29.5405H3.32176V29.0353H5.40647V28.9884C5.39755 28.8278 5.36409 28.6716 5.30608 28.5199C5.25031 28.3682 5.16108 28.2433 5.03838 28.1452C4.91569 28.047 4.74838 27.9979 4.53645 27.9979C4.39591 27.9979 4.26652 28.028 4.14828 28.0883C4.03005 28.1463 3.92855 28.2333 3.84378 28.3493C3.759 28.4653 3.6932 28.6069 3.64635 28.7742C3.5995 28.9416 3.57608 29.1345 3.57608 29.3531V29.4937C3.57608 29.6655 3.5995 29.8272 3.64635 29.9789C3.69543 30.1284 3.7657 30.26 3.85716 30.3738C3.95086 30.4875 4.06351 30.5768 4.19513 30.6414C4.32898 30.7061 4.48068 30.7385 4.65022 30.7385C4.86884 30.7385 5.054 30.6939 5.2057 30.6046C5.35739 30.5154 5.49013 30.3961 5.6039 30.2466L5.97868 30.5444C5.9006 30.6626 5.80133 30.7753 5.68086 30.8824C5.5604 30.9895 5.41205 31.0765 5.23581 31.1434C5.06181 31.2103 4.85546 31.2438 4.61676 31.2438Z" fill="#C5C5C5"/>
<path d="M9.78336 29.6275H10.4258C10.3924 29.9354 10.3043 30.2109 10.1615 30.4541C10.0187 30.6972 9.81682 30.8902 9.55581 31.033C9.29481 31.1735 8.96911 31.2438 8.57871 31.2438C8.29317 31.2438 8.03327 31.1902 7.79904 31.0832C7.56703 30.9761 7.36737 30.8244 7.20006 30.6281C7.03275 30.4295 6.90336 30.1919 6.81189 29.9153C6.72266 29.6365 6.67804 29.3264 6.67804 28.9851V28.4999C6.67804 28.1585 6.72266 27.8496 6.81189 27.5729C6.90336 27.2941 7.03386 27.0554 7.2034 26.8568C7.37518 26.6583 7.58153 26.5055 7.82246 26.3984C8.06339 26.2913 8.33444 26.2378 8.6356 26.2378C9.00368 26.2378 9.31489 26.3069 9.5692 26.4453C9.82351 26.5836 10.0209 26.7754 10.1615 27.0208C10.3043 27.264 10.3924 27.5462 10.4258 27.8674H9.78336C9.75213 27.6399 9.69413 27.4447 9.60935 27.2818C9.52458 27.1167 9.40412 26.9896 9.24796 26.9003C9.0918 26.8111 8.88768 26.7665 8.6356 26.7665C8.41921 26.7665 8.22847 26.8078 8.06339 26.8903C7.90054 26.9729 7.76334 27.09 7.6518 27.2417C7.54249 27.3934 7.45995 27.5752 7.40418 27.7871C7.34841 27.999 7.32052 28.2344 7.32052 28.4932V28.9851C7.32052 29.2238 7.34506 29.448 7.39414 29.6577C7.44545 29.8674 7.52241 30.0514 7.62503 30.2098C7.72765 30.3682 7.85815 30.4931 8.01654 30.5846C8.17493 30.6738 8.36232 30.7184 8.57871 30.7184C8.8531 30.7184 9.07172 30.6749 9.23458 30.5879C9.39743 30.5009 9.52012 30.376 9.60266 30.2131C9.68743 30.0503 9.74767 29.8551 9.78336 29.6275Z" fill="#C5C5C5"/>
<path d="M13.1095 26.7364L11.4966 31.1768H10.8374L12.6946 26.3047H13.1196L13.1095 26.7364ZM14.4614 31.1768L12.8452 26.7364L12.8351 26.3047H13.2601L15.124 31.1768H14.4614ZM14.3778 29.3732V29.9019H11.6405V29.3732H14.3778Z" fill="#C5C5C5"/>
<path d="M17.5734 29.2661H16.2717V28.7408H17.5734C17.8255 28.7408 18.0296 28.7006 18.1858 28.6203C18.3419 28.54 18.4557 28.4285 18.5271 28.2857C18.6007 28.1429 18.6375 27.9801 18.6375 27.7971C18.6375 27.6298 18.6007 27.4726 18.5271 27.3253C18.4557 27.1781 18.3419 27.0599 18.1858 26.9706C18.0296 26.8792 17.8255 26.8334 17.5734 26.8334H16.4223V31.1768H15.7765V26.3047H17.5734C17.9415 26.3047 18.2527 26.3683 18.507 26.4955C18.7613 26.6226 18.9543 26.7988 19.0859 27.0242C19.2175 27.2472 19.2833 27.5027 19.2833 27.7905C19.2833 28.1028 19.2175 28.3694 19.0859 28.5902C18.9543 28.8111 18.7613 28.9795 18.507 29.0955C18.2527 29.2093 17.9415 29.2661 17.5734 29.2661Z" fill="#C5C5C5"/>
<path d="M21.9001 26.3047V31.1768H21.2643V26.3047H21.9001ZM23.4662 26.3047V26.8334H19.7016V26.3047H23.4662Z" fill="#C5C5C5"/>
<path d="M27.0366 29.6275H27.6791C27.6456 29.9354 27.5575 30.2109 27.4147 30.4541C27.2719 30.6972 27.0701 30.8902 26.809 31.033C26.548 31.1735 26.2223 31.2438 25.8319 31.2438C25.5464 31.2438 25.2865 31.1902 25.0523 31.0832C24.8203 30.9761 24.6206 30.8244 24.4533 30.6281C24.286 30.4295 24.1566 30.1919 24.0651 29.9153C23.9759 29.6365 23.9313 29.3264 23.9313 28.9851V28.4999C23.9313 28.1585 23.9759 27.8496 24.0651 27.5729C24.1566 27.2941 24.2871 27.0554 24.4566 26.8568C24.6284 26.6583 24.8348 26.5055 25.0757 26.3984C25.3166 26.2913 25.5877 26.2378 25.8888 26.2378C26.2569 26.2378 26.5681 26.3069 26.8224 26.4453C27.0767 26.5836 27.2742 26.7754 27.4147 27.0208C27.5575 27.264 27.6456 27.5462 27.6791 27.8674H27.0366C27.0054 27.6399 26.9474 27.4447 26.8626 27.2818C26.7778 27.1167 26.6574 26.9896 26.5012 26.9003C26.345 26.8111 26.1409 26.7665 25.8888 26.7665C25.6724 26.7665 25.4817 26.8078 25.3166 26.8903C25.1538 26.9729 25.0166 27.09 24.905 27.2417C24.7957 27.3934 24.7132 27.5752 24.6574 27.7871C24.6016 27.999 24.5738 28.2344 24.5738 28.4932V28.9851C24.5738 29.2238 24.5983 29.448 24.6474 29.6577C24.6987 29.8674 24.7756 30.0514 24.8783 30.2098C24.9809 30.3682 25.1114 30.4931 25.2698 30.5846C25.4282 30.6738 25.6156 30.7184 25.8319 30.7184C26.1063 30.7184 26.325 30.6749 26.4878 30.5879C26.6507 30.5009 26.7734 30.376 26.8559 30.2131C26.9407 30.0503 27.0009 29.8551 27.0366 29.6275Z" fill="#C5C5C5"/>
<path d="M31.7414 28.3995V28.9248H29.1046V28.3995H31.7414ZM29.205 26.3047V31.1768H28.5591V26.3047H29.205ZM32.3036 26.3047V31.1768H31.6611V26.3047H32.3036Z" fill="#C5C5C5"/>
<path d="M35.3152 26.7364L33.7023 31.1768H33.0431L34.9003 26.3047H35.3252L35.3152 26.7364ZM36.6671 31.1768L35.0508 26.7364L35.0408 26.3047H35.4658L37.3296 31.1768H36.6671ZM36.5834 29.3732V29.9019H33.8462V29.3732H36.5834Z" fill="#C5C5C5"/>
<path d="M3.691 37.5485H2.74493V37.1667H3.691C3.87421 37.1667 4.02256 37.1375 4.13606 37.0792C4.24955 37.0208 4.33224 36.9397 4.38413 36.836C4.43763 36.7322 4.46439 36.6138 4.46439 36.4809C4.46439 36.3593 4.43763 36.245 4.38413 36.138C4.33224 36.031 4.24955 35.945 4.13606 35.8802C4.02256 35.8137 3.87421 35.7805 3.691 35.7805H2.85438V38.9372H2.38499V35.3962H3.691C3.95852 35.3962 4.1847 35.4424 4.36954 35.5348C4.55437 35.6272 4.69462 35.7553 4.79028 35.9191C4.88594 36.0812 4.93377 36.2669 4.93377 36.476C4.93377 36.703 4.88594 36.8968 4.79028 37.0573C4.69462 37.2178 4.55437 37.3402 4.36954 37.4245C4.1847 37.5072 3.95852 37.5485 3.691 37.5485Z" fill="#C5C5C5"/>
<path d="M5.90902 36.7192V38.9372H5.45909V36.3058H5.89685L5.90902 36.7192ZM6.73104 36.2912L6.72861 36.7095C6.69132 36.7014 6.65565 36.6965 6.6216 36.6949C6.58917 36.6917 6.55188 36.69 6.50973 36.69C6.40596 36.69 6.31435 36.7063 6.23491 36.7387C6.15546 36.7711 6.08818 36.8165 6.03305 36.8749C5.97792 36.9332 5.93415 37.003 5.90172 37.084C5.87091 37.1635 5.85065 37.251 5.84092 37.3467L5.71445 37.4196C5.71445 37.2608 5.72986 37.1116 5.76066 36.9722C5.79309 36.8327 5.84254 36.7095 5.90902 36.6025C5.97549 36.4939 6.0598 36.4095 6.16195 36.3496C6.26571 36.2879 6.38894 36.2571 6.53162 36.2571C6.56404 36.2571 6.60134 36.2612 6.64349 36.2693C6.68565 36.2758 6.71483 36.2831 6.73104 36.2912Z" fill="#C5C5C5"/>
<path d="M7.63576 36.3058V38.9372H7.1834V36.3058H7.63576ZM7.14935 35.6078C7.14935 35.5348 7.17124 35.4732 7.21502 35.4229C7.26042 35.3727 7.32689 35.3476 7.41445 35.3476C7.50038 35.3476 7.56604 35.3727 7.61144 35.4229C7.65846 35.4732 7.68197 35.5348 7.68197 35.6078C7.68197 35.6775 7.65846 35.7375 7.61144 35.7878C7.56604 35.8364 7.50038 35.8607 7.41445 35.8607C7.32689 35.8607 7.26042 35.8364 7.21502 35.7878C7.17124 35.7375 7.14935 35.6775 7.14935 35.6078Z" fill="#C5C5C5"/>
<path d="M9.15822 38.5311L9.8781 36.3058H10.3378L9.39169 38.9372H9.09012L9.15822 38.5311ZM8.5575 36.3058L9.29928 38.5432L9.35035 38.9372H9.04878L8.09542 36.3058H8.5575Z" fill="#C5C5C5"/>
<path d="M12.2882 38.4873V37.1327C12.2882 37.0289 12.2672 36.9389 12.225 36.8627C12.1845 36.7849 12.1229 36.7249 12.0402 36.6827C11.9575 36.6406 11.8553 36.6195 11.7337 36.6195C11.6203 36.6195 11.5205 36.639 11.4346 36.6779C11.3503 36.7168 11.2838 36.7679 11.2352 36.8311C11.1882 36.8943 11.1646 36.9624 11.1646 37.0354H10.7147C10.7147 36.9413 10.739 36.8481 10.7877 36.7557C10.8363 36.6633 10.906 36.5798 10.9968 36.5052C11.0893 36.429 11.1995 36.369 11.3276 36.3252C11.4573 36.2798 11.6016 36.2571 11.7605 36.2571C11.9518 36.2571 12.1204 36.2896 12.2664 36.3544C12.4139 36.4193 12.529 36.5174 12.6117 36.6487C12.696 36.7784 12.7382 36.9413 12.7382 37.1375V38.3633C12.7382 38.4508 12.7455 38.5441 12.7601 38.643C12.7763 38.7419 12.7998 38.827 12.8306 38.8983V38.9372H12.3612C12.3385 38.8854 12.3207 38.8164 12.3077 38.7305C12.2947 38.643 12.2882 38.5619 12.2882 38.4873ZM12.3661 37.3418L12.3709 37.658H11.9161C11.7881 37.658 11.6738 37.6685 11.5732 37.6896C11.4727 37.7091 11.3884 37.7391 11.3203 37.7796C11.2522 37.8201 11.2003 37.8712 11.1646 37.9328C11.129 37.9928 11.1111 38.0633 11.1111 38.1444C11.1111 38.2271 11.1298 38.3025 11.1671 38.3706C11.2044 38.4387 11.2603 38.493 11.3349 38.5335C11.4111 38.5724 11.5043 38.5919 11.6146 38.5919C11.7524 38.5919 11.874 38.5627 11.9794 38.5043C12.0848 38.446 12.1683 38.3746 12.2299 38.2903C12.2931 38.206 12.3272 38.1241 12.332 38.0447L12.5242 38.2611C12.5128 38.3292 12.482 38.4046 12.4317 38.4873C12.3815 38.57 12.3142 38.6494 12.2299 38.7257C12.1472 38.8002 12.0483 38.8627 11.9332 38.9129C11.8197 38.9616 11.6916 38.9859 11.5489 38.9859C11.3706 38.9859 11.2141 38.951 11.0795 38.8813C10.9466 38.8116 10.8428 38.7184 10.7682 38.6016C10.6953 38.4833 10.6588 38.3511 10.6588 38.2052C10.6588 38.0641 10.6863 37.9401 10.7415 37.8331C10.7966 37.7245 10.876 37.6345 10.9798 37.5631C11.0836 37.4902 11.2084 37.4351 11.3543 37.3978C11.5003 37.3605 11.6632 37.3418 11.8432 37.3418H12.3661Z" fill="#C5C5C5"/>
<path d="M14.499 38.6162C14.606 38.6162 14.7049 38.5943 14.7957 38.5505C14.8865 38.5068 14.9611 38.4468 15.0194 38.3706C15.0778 38.2927 15.111 38.2044 15.1191 38.1055H15.5472C15.5391 38.2611 15.4864 38.4062 15.3891 38.5408C15.2934 38.6738 15.1678 38.7816 15.0121 38.8643C14.8565 38.9453 14.6854 38.9859 14.499 38.9859C14.3012 38.9859 14.1285 38.951 13.9809 38.8813C13.835 38.8116 13.7134 38.7159 13.6161 38.5943C13.5205 38.4727 13.4483 38.3333 13.3997 38.176C13.3527 38.0171 13.3292 37.8493 13.3292 37.6726V37.5704C13.3292 37.3937 13.3527 37.2267 13.3997 37.0694C13.4483 36.9105 13.5205 36.7703 13.6161 36.6487C13.7134 36.5271 13.835 36.4314 13.9809 36.3617C14.1285 36.292 14.3012 36.2571 14.499 36.2571C14.7049 36.2571 14.8849 36.2993 15.0389 36.3836C15.1929 36.4663 15.3137 36.5798 15.4013 36.7241C15.4904 36.8668 15.5391 37.0289 15.5472 37.2105H15.1191C15.111 37.1019 15.0802 37.0038 15.0267 36.9162C14.9748 36.8287 14.9035 36.7589 14.8127 36.7071C14.7235 36.6536 14.619 36.6268 14.499 36.6268C14.3612 36.6268 14.2452 36.6544 14.1512 36.7095C14.0588 36.763 13.985 36.836 13.9299 36.9284C13.8764 37.0192 13.8375 37.1205 13.8131 37.2324C13.7904 37.3426 13.7791 37.4553 13.7791 37.5704V37.6726C13.7791 37.7877 13.7904 37.9012 13.8131 38.0131C13.8358 38.1249 13.8739 38.2263 13.9274 38.3171C13.9826 38.4079 14.0563 38.4808 14.1488 38.536C14.2428 38.5895 14.3595 38.6162 14.499 38.6162Z" fill="#C5C5C5"/>
<path d="M16.7924 38.6649L17.5244 36.3058H18.006L16.9505 39.3434C16.9261 39.4082 16.8937 39.478 16.8532 39.5525C16.8143 39.6287 16.764 39.7009 16.7024 39.769C16.6408 39.8371 16.5662 39.8922 16.4787 39.9344C16.3927 39.9782 16.2898 40 16.1698 40C16.1341 40 16.0887 39.9952 16.0336 39.9854C15.9785 39.9757 15.9395 39.9676 15.9168 39.9611L15.9144 39.5963C15.9274 39.5979 15.9477 39.5996 15.9752 39.6012C16.0044 39.6044 16.0247 39.6061 16.036 39.6061C16.1382 39.6061 16.2249 39.5923 16.2962 39.5647C16.3676 39.5388 16.4276 39.4942 16.4762 39.4309C16.5265 39.3693 16.5694 39.2842 16.6051 39.1756L16.7924 38.6649ZM16.2549 36.3058L16.9383 38.3487L17.055 38.8229L16.7316 38.9883L15.7636 36.3058H16.2549Z" fill="#C5C5C5"/>
<path d="M20.5839 37.247V37.6166H19.3971V37.247H20.5839Z" fill="#C5C5C5"/>
<path d="M23.5389 35.3962V38.9372H23.0768V35.3962H23.5389ZM24.677 35.3962V35.7805H21.941V35.3962H24.677Z" fill="#C5C5C5"/>
<path d="M25.9879 38.9859C25.8047 38.9859 25.6385 38.9551 25.4894 38.8935C25.3418 38.8302 25.2145 38.7419 25.1075 38.6284C25.0021 38.5149 24.9211 38.3803 24.8643 38.2247C24.8076 38.069 24.7792 37.8988 24.7792 37.7139V37.6118C24.7792 37.3978 24.8108 37.2072 24.874 37.0402C24.9373 36.8716 25.0232 36.7289 25.1318 36.6122C25.2405 36.4955 25.3637 36.4071 25.5015 36.3471C25.6393 36.2871 25.782 36.2571 25.9296 36.2571C26.1176 36.2571 26.2798 36.2896 26.416 36.3544C26.5538 36.4193 26.6665 36.5101 26.754 36.6268C26.8416 36.7419 26.9064 36.8781 26.9486 37.0354C26.9907 37.191 27.0118 37.3613 27.0118 37.5461V37.748H25.0467V37.3807H26.5619V37.3467C26.5554 37.2299 26.5311 37.1165 26.4889 37.0062C26.4484 36.8959 26.3835 36.8052 26.2944 36.7338C26.2052 36.6625 26.0836 36.6268 25.9296 36.6268C25.8274 36.6268 25.7334 36.6487 25.6474 36.6925C25.5615 36.7346 25.4877 36.7979 25.4261 36.8822C25.3645 36.9665 25.3167 37.0694 25.2826 37.191C25.2486 37.3126 25.2316 37.4529 25.2316 37.6118V37.7139C25.2316 37.8388 25.2486 37.9563 25.2826 38.0666C25.3183 38.1752 25.3694 38.2709 25.4358 38.3535C25.5039 38.4362 25.5858 38.5011 25.6815 38.5481C25.7788 38.5951 25.889 38.6186 26.0122 38.6186C26.1711 38.6186 26.3057 38.5862 26.416 38.5214C26.5262 38.4565 26.6227 38.3698 26.7054 38.2611L26.9778 38.4776C26.921 38.5635 26.8489 38.6454 26.7613 38.7232C26.6738 38.801 26.5659 38.8643 26.4378 38.9129C26.3114 38.9616 26.1614 38.9859 25.9879 38.9859Z" fill="#C5C5C5"/>
<path d="M27.9871 36.7192V38.9372H27.5371V36.3058H27.9749L27.9871 36.7192ZM28.8091 36.2912L28.8066 36.7095C28.7694 36.7014 28.7337 36.6965 28.6996 36.6949C28.6672 36.6917 28.6299 36.69 28.5878 36.69C28.484 36.69 28.3924 36.7063 28.3129 36.7387C28.2335 36.7711 28.1662 36.8165 28.1111 36.8749C28.056 36.9332 28.0122 37.003 27.9798 37.084C27.9489 37.1635 27.9287 37.251 27.919 37.3467L27.7925 37.4196C27.7925 37.2608 27.8079 37.1116 27.8387 36.9722C27.8711 36.8327 27.9206 36.7095 27.9871 36.6025C28.0535 36.4939 28.1378 36.4095 28.24 36.3496C28.3438 36.2879 28.467 36.2571 28.6097 36.2571C28.6421 36.2571 28.6794 36.2612 28.7215 36.2693C28.7637 36.2758 28.7929 36.2831 28.8091 36.2912Z" fill="#C5C5C5"/>
<path d="M29.6725 36.8287V38.9372H29.2201V36.3058H29.6481L29.6725 36.8287ZM29.58 37.5218L29.3709 37.5145C29.3725 37.3345 29.396 37.1683 29.4414 37.0159C29.4868 36.8619 29.5541 36.7281 29.6433 36.6146C29.7324 36.5011 29.8435 36.4136 29.9765 36.352C30.1094 36.2888 30.2634 36.2571 30.4385 36.2571C30.5618 36.2571 30.6753 36.275 30.779 36.3106C30.8828 36.3447 30.9728 36.399 31.049 36.4736C31.1252 36.5482 31.1844 36.6438 31.2265 36.7606C31.2687 36.8773 31.2898 37.0184 31.2898 37.1837V38.9372H30.8398V37.2056C30.8398 37.0678 30.8163 36.9576 30.7693 36.8749C30.7239 36.7922 30.6591 36.7322 30.5747 36.6949C30.4904 36.656 30.3915 36.6365 30.278 36.6365C30.1451 36.6365 30.034 36.66 29.9448 36.7071C29.8557 36.7541 29.7843 36.8189 29.7308 36.9016C29.6773 36.9843 29.6384 37.0792 29.6141 37.1862C29.5914 37.2916 29.58 37.4034 29.58 37.5218ZM31.2849 37.2737L30.9833 37.3661C30.9849 37.2218 31.0085 37.0832 31.0539 36.9503C31.1009 36.8173 31.1682 36.699 31.2557 36.5952C31.3449 36.4914 31.4543 36.4095 31.584 36.3496C31.7137 36.2879 31.8621 36.2571 32.0291 36.2571C32.1702 36.2571 32.295 36.2758 32.4036 36.3131C32.5139 36.3504 32.6063 36.4079 32.6809 36.4857C32.7571 36.5619 32.8146 36.66 32.8536 36.78C32.8925 36.9 32.9119 37.0427 32.9119 37.2081V38.9372H32.4596V37.2032C32.4596 37.0557 32.4361 36.9413 32.389 36.8603C32.3436 36.7776 32.2788 36.72 32.1945 36.6876C32.1118 36.6536 32.0129 36.6365 31.8978 36.6365C31.7989 36.6365 31.7113 36.6536 31.6351 36.6876C31.5589 36.7217 31.4949 36.7687 31.443 36.8287C31.3911 36.887 31.3514 36.9543 31.3238 37.0305C31.2979 37.1067 31.2849 37.1878 31.2849 37.2737Z" fill="#C5C5C5"/>
<path d="M35.1251 38.2392C35.1251 38.1744 35.1105 38.1144 35.0813 38.0593C35.0537 38.0025 34.9962 37.9515 34.9086 37.9061C34.8227 37.859 34.693 37.8185 34.5195 37.7845C34.3736 37.7536 34.2414 37.7172 34.1231 37.675C34.0063 37.6329 33.9066 37.5818 33.8239 37.5218C33.7429 37.4618 33.6805 37.3913 33.6367 37.3102C33.5929 37.2291 33.571 37.1343 33.571 37.0257C33.571 36.9219 33.5937 36.8238 33.6391 36.7314C33.6861 36.639 33.7518 36.5571 33.8361 36.4857C33.922 36.4144 34.025 36.3585 34.145 36.3179C34.265 36.2774 34.3987 36.2571 34.5463 36.2571C34.757 36.2571 34.937 36.2944 35.0862 36.369C35.2353 36.4436 35.3496 36.5433 35.4291 36.6681C35.5085 36.7914 35.5483 36.9284 35.5483 37.0792H35.0983C35.0983 37.0062 35.0764 36.9357 35.0327 36.8676C34.9905 36.7979 34.9281 36.7403 34.8454 36.6949C34.7643 36.6495 34.6646 36.6268 34.5463 36.6268C34.4214 36.6268 34.3201 36.6463 34.2423 36.6852C34.1661 36.7225 34.1101 36.7703 34.0744 36.8287C34.0404 36.887 34.0234 36.9486 34.0234 37.0135C34.0234 37.0621 34.0315 37.1059 34.0477 37.1448C34.0655 37.1821 34.0963 37.217 34.1401 37.2494C34.1839 37.2802 34.2455 37.3094 34.3249 37.337C34.4044 37.3645 34.5057 37.3921 34.6289 37.4196C34.8446 37.4683 35.0221 37.5267 35.1616 37.5948C35.301 37.6629 35.4048 37.7464 35.4729 37.8453C35.541 37.9442 35.575 38.0641 35.575 38.2052C35.575 38.3203 35.5507 38.4257 35.5021 38.5214C35.455 38.617 35.3861 38.6997 35.2953 38.7694C35.2062 38.8375 35.0991 38.891 34.9743 38.9299C34.8511 38.9672 34.7124 38.9859 34.5584 38.9859C34.3266 38.9859 34.1304 38.9445 33.9699 38.8618C33.8094 38.7792 33.6878 38.6721 33.6051 38.5408C33.5224 38.4095 33.481 38.2709 33.481 38.1249H33.9334C33.9399 38.2482 33.9755 38.3463 34.0404 38.4192C34.1052 38.4906 34.1847 38.5416 34.2787 38.5724C34.3728 38.6016 34.466 38.6162 34.5584 38.6162C34.6816 38.6162 34.7846 38.6 34.8673 38.5676C34.9516 38.5351 35.0156 38.4906 35.0594 38.4338C35.1032 38.3771 35.1251 38.3122 35.1251 38.2392Z" fill="#C5C5C5"/>
<defs>
<filter id="filter0_d_1042_153" x="7.14697" y="-2.1272" width="14.8501" height="22.0342" filterUnits="userSpaceOnUse" color-interpolation-filters="sRGB">
<feFlood flood-opacity="0" result="BackgroundImageFix"/>
<feColorMatrix in="SourceAlpha" type="matrix" values="0 0 0 0 0 0 0 0 0 0 0 0 0 0 0 0 0 0 127 0" result="hardAlpha"/>
<feOffset/>
<feGaussianBlur stdDeviation="1.47254"/>
<feColorMatrix type="matrix" values="0 0 0 0 0 0 0 0 0 0 0 0 0 0 0 0 0 0 0.24 0"/>
<feBlend mode="normal" in2="BackgroundImageFix" result="effect1_dropShadow_1042_153"/>
<feBlend mode="normal" in="SourceGraphic" in2="effect1_dropShadow_1042_153" result="shape"/>
</filter>
<filter id="filter1_d_1042_153" x="7.1474" y="6.9104" width="22.0342" height="14.8501" filterUnits="userSpaceOnUse" color-interpolation-filters="sRGB">
<feFlood flood-opacity="0" result="BackgroundImageFix"/>
<feColorMatrix in="SourceAlpha" type="matrix" values="0 0 0 0 0 0 0 0 0 0 0 0 0 0 0 0 0 0 127 0" result="hardAlpha"/>
<feOffset/>
<feGaussianBlur stdDeviation="1.47254"/>
<feColorMatrix type="matrix" values="0 0 0 0 0 0 0 0 0 0 0 0 0 0 0 0 0 0 0.24 0"/>
<feBlend mode="normal" in2="BackgroundImageFix" result="effect1_dropShadow_1042_153"/>
<feBlend mode="normal" in="SourceGraphic" in2="effect1_dropShadow_1042_153" result="shape"/>
</filter>
</defs>
</svg>
