<svg width="56" height="56" viewBox="0 0 56 56" fill="none" xmlns="http://www.w3.org/2000/svg">
<path d="M22.3335 23.0002C22.3335 24.2378 22.8252 25.4248 23.7003 26.3C24.5755 27.1752 25.7625 27.6668 27.0002 27.6668C28.2378 27.6668 29.4248 27.1752 30.3 26.3C31.1752 25.4248 31.6668 24.2378 31.6668 23.0002C31.6668 21.7625 31.1752 20.5755 30.3 19.7003C29.4248 18.8252 28.2378 18.3335 27.0002 18.3335C25.7625 18.3335 24.5755 18.8252 23.7003 19.7003C22.8252 20.5755 22.3335 21.7625 22.3335 23.0002Z" stroke="white" stroke-width="1.5" stroke-linecap="round" stroke-linejoin="round"/>
<path d="M27 37C26.2347 37 25.4787 36.9603 24.7367 36.8833C17.3353 36.1087 11.0867 31.4817 6 23C11.6 13.6667 18.6 9 27 9C35.085 9 41.8727 13.3237 47.363 21.9687" stroke="#E62636" stroke-width="1.5" stroke-linecap="round" stroke-linejoin="round"/>
<path d="M34 37C34 38.8565 34.7375 40.637 36.0503 41.9497C37.363 43.2625 39.1435 44 41 44C42.8565 44 44.637 43.2625 45.9497 41.9497C47.2625 40.637 48 38.8565 48 37C48 35.1435 47.2625 33.363 45.9497 32.0503C44.637 30.7375 42.8565 30 41 30C39.1435 30 37.363 30.7375 36.0503 32.0503C34.7375 33.363 34 35.1435 34 37Z" stroke="white" stroke-width="1.5" stroke-linecap="round" stroke-linejoin="round"/>
<path d="M46.1333 42.1333L50.3333 46.3333" stroke="white" stroke-width="1.5" stroke-linecap="round" stroke-linejoin="round"/>
</svg>
