<svg width="56" height="56" viewBox="0 0 56 56" fill="none" xmlns="http://www.w3.org/2000/svg">
<path d="M13.5971 34C9.09747 34 4.1875 37.6914 4.01172 49H4V52H6.99981V51.9766C23.0887 51.6602 24.3309 41.1953 19.5383 36.3789C18.1438 34.9727 15.9291 34 13.5971 34ZM20.0462 44.5784C18.5854 48.1923 13.8196 50.3421 6.97038 50.4769L6.32069 50.5H5.5V49.7665L5.51153 49.0232C5.64316 40.5554 8.66575 35.5 13.5971 35.5C15.4212 35.5 17.2896 36.2414 18.475 37.4369C20.4007 39.3722 21.0175 42.1753 20.0462 44.5784ZM51.3529 5.80469C51.2475 5.30078 50.6967 4.75 50.1928 4.64453C47.1812 4 44.826 4 42.4824 4C32.8032 4 27.0026 9.17969 22.667 16H12.9057C11.3824 16 9.56603 17.1133 8.88653 18.4844L4.25781 27.7422C4.11719 28.0586 4.03516 28.3984 4.02344 28.75C4.02344 29.9922 5.03125 31 6.27325 31H16.0112C20.9795 31 25.0106 35.0312 25.0106 40V49.75C25.0106 50.9922 26.0184 52 27.2604 52C27.612 51.9883 27.9518 51.9062 28.2682 51.7539L37.5138 47.125C38.8848 46.4453 39.998 44.6406 39.998 43.1172V33.3203C46.8063 28.9844 51.9975 23.1602 51.9975 13.5391C52.0092 11.1719 52.0092 8.81641 51.3529 5.80469ZM15.5732 29.5H6.27325C5.85981 29.5 5.52344 29.1636 5.52269 28.8C5.52766 28.6491 5.56338 28.4982 5.59947 28.4129L10.2303 19.1505C10.6509 18.3022 11.9511 17.5 12.9057 17.5H21.8621C20.0455 20.5221 18.4098 23.7098 16.876 26.8574C16.4393 27.7482 16.0069 28.627 15.5732 29.5ZM38.498 43.1172C38.498 44.0831 37.7114 45.3529 36.8423 45.7837L27.6175 50.4024C27.4919 50.4629 27.3549 50.496 27.2604 50.5C26.847 50.5 26.5106 50.1636 26.5106 49.75V40.427C27.3432 40.0139 28.1823 39.6021 29.0342 39.1885C32.2145 37.6372 35.4383 35.9832 38.498 34.1364V43.1172ZM28.3779 37.8379C27.7059 38.1662 27.0504 38.4902 26.3909 38.8151C25.838 33.9795 22.024 30.1678 17.1876 29.6191C17.5328 28.9198 17.8775 28.2232 18.2237 27.5137C24.6154 14.4033 29.7336 5.5 42.4824 5.5C44.8172 5.5 47.0226 5.5 49.7996 6.08537C49.8255 6.09953 49.8661 6.13741 49.8814 6.13741C49.8864 6.13741 49.8888 6.13356 49.8873 6.124C50.5198 9.02641 50.5084 11.3167 50.4975 13.5391C50.4975 25.5698 42.7138 30.8526 28.3779 37.8379ZM38.4981 12.25C35.6038 12.25 33.2483 14.6055 33.2483 17.5C33.2483 20.4062 35.6038 22.75 38.4981 22.75C41.4043 22.75 43.7478 20.4062 43.7478 17.5C43.7478 14.6055 41.4043 12.25 38.4981 12.25ZM38.4981 21.25C36.4306 21.25 34.7483 19.5678 34.7483 17.5C34.7483 15.4322 36.4306 13.75 38.4981 13.75C40.5657 13.75 42.2478 15.4322 42.2478 17.5C42.2478 19.5678 40.5658 21.25 38.4981 21.25Z" fill="#E62636"/>
<path d="M38.4979 12.25C35.6035 12.25 33.248 14.6055 33.248 17.5C33.248 20.4062 35.6035 22.75 38.4979 22.75C41.404 22.75 43.7476 20.4062 43.7476 17.5C43.7476 14.6055 41.404 12.25 38.4979 12.25ZM38.4979 21.25C36.4303 21.25 34.748 19.5678 34.748 17.5C34.748 15.4322 36.4303 13.75 38.4979 13.75C40.5654 13.75 42.2476 15.4322 42.2476 17.5C42.2476 19.5678 40.5655 21.25 38.4979 21.25Z" fill="white"/>
<path d="M13.5971 34C9.09747 34 4.1875 37.6914 4.01172 49H4V52H6.99981V51.9766C23.0887 51.6602 24.3309 41.1953 19.5383 36.3789C18.1438 34.9727 15.9291 34 13.5971 34ZM20.0462 44.5784C18.5854 48.1923 13.8196 50.3421 6.97038 50.4769L6.32069 50.5H5.5V49.7665L5.51153 49.0232C5.64316 40.5554 8.66575 35.5 13.5971 35.5C15.4212 35.5 17.2896 36.2414 18.475 37.4369C20.4007 39.3722 21.0175 42.1753 20.0462 44.5784Z" fill="white"/>
</svg>
